<svg xmlns="http://www.w3.org/2000/svg" viewBox="0 0 24 24" fill="#2F3134">
  <path d="M12 2L3 7v10l9 5 9-5V7l-9-5zm7 13.5l-7 3.89-7-3.89V8.5l7-3.89 7 3.89v7z"/>
  <path d="M12 6.5L7.5 9v6l4.5 2.5 4.5-2.5V9L12 6.5zm3 6.75l-3 1.67-3-1.67v-3.33l3-1.67 3 1.67v3.33z"/>
  <circle cx="12" cy="12" r="1.5"/>
  <circle cx="9" cy="10.5" r=".75"/>
  <circle cx="15" cy="10.5" r=".75"/>
  <circle cx="9" cy="13.5" r=".75"/>
  <circle cx="15" cy="13.5" r=".75"/>
  <circle cx="12" cy="8" r=".75"/>
  <circle cx="12" cy="16" r=".75"/>
</svg>